<?xml version="1.0" encoding="utf-8"?>
<!-- Generator: Adobe Illustrator 22.1.0, SVG Export Plug-In . SVG Version: 6.00 Build 0)  -->
<svg version="1.1" id="Layer_1" xmlns="http://www.w3.org/2000/svg" xmlns:xlink="http://www.w3.org/1999/xlink" x="0px" y="0px"
	 viewBox="0 0 598.2 598.2" style="enable-background:new 0 0 598.2 598.2;" xml:space="preserve">
<style type="text/css">
	.st0{fill:#58595B;}
</style>
<title>Asset 3icon</title>
<path class="st0" d="M542.3,1.6H55.9C25,1.7,0,26.7,0,57.6v352.8c0,30.9,25,55.9,55.9,55.9c0,0,0,0,0,0h56.3L182,584
	c5.2,9.7,17.3,13.4,27,8.3c3.5-1.9,6.4-4.7,8.3-8.3l69.8-117.6h255.2c30.9,0,55.9-25,56-55.9V57.6C598.2,26.7,573.2,1.6,542.3,1.6
	L542.3,1.6z M533.5,401.6H250.2l-18.8,31.7l-31.8,53.6l-31.8-53.6L149,401.6H64.6V66.4h468.9V401.6z"/>
<path class="st0" d="M154.7,283.6c25.9,0,46.9-21,46.9-46.9c0-25.9-21-46.9-46.9-46.9s-46.9,21-46.9,46.9
	C107.7,262.6,128.7,283.6,154.7,283.6L154.7,283.6z"/>
<path class="st0" d="M298.6,283.6c25.9,0,46.9-21,46.9-46.9c0-25.9-21-46.9-46.9-46.9c-25.9,0-46.9,21-46.9,46.9c0,0,0,0,0,0
	C251.7,262.5,272.7,283.5,298.6,283.6z"/>
<path class="st0" d="M443.5,283.6c25.9,0,46.9-21,46.9-46.9c0-25.9-21-46.9-46.9-46.9c-25.9,0-46.9,21-46.9,46.9c0,0,0,0,0,0
	C396.6,262.5,417.6,283.5,443.5,283.6z"/>
</svg>
