<svg xmlns="http://www.w3.org/2000/svg" viewBox="0 0 598.21 598.21"><title>Asset 4icon</title><circle cx="299.1" cy="299.1" r="299.1" style="fill:#58595b"/><path d="M450.69,256.8H424.83V191.45l-57.34-57.34H173.37V256.8H147.51a23.76,23.76,0,0,0-23.76,23.76v122a23.76,23.76,0,0,0,23.76,23.76h27.11V464.1h249V426.32h27.11a23.76,23.76,0,0,0,23.76-23.76v-122A23.76,23.76,0,0,0,450.69,256.8ZM193.88,154.63H361.32v42.42h43V256.8H193.88ZM405.57,446.08H192.63V363.17H405.57Zm8.57-128.21a14.47,14.47,0,1,1,14.46-14.46A14.46,14.46,0,0,1,414.14,317.87Z" style="fill:#fff"/></svg>